# xmcd
#
# Track frame offsets:
#	150
#	16012
#	35945
#	55535
#	74642
#	94337
#	114437
#	130150
#	149427
#	168880
#	189137
#	210502
#	226607
#	245272
#	264992
#	288552
#	307792
#
# Disc length: 4440
#
# Revision: 1
# Processed by: cddbd v1.5.1PL0 Copyright (c) Steve Scherf et al.
# Submitted via: dBpowerAMP V4.0
# Normalized: r0:TRMNUM
#
DISCID=e1115611
DTITLE=Fabio Junior - Brilhante
DYEAR=1900
DGENRE=Pop
TTITLE0=Senta Aqui
TTITLE1=Quando Gira O Mundo
TTITLE2=Sem Limites Pra Sonhar
TTITLE3=Desejos E Delírios
TTITLE4=Rio E Canoa
TTITLE5=Ai Qui Saudade De Ocê
TTITLE6=O Que É Que Há
TTITLE7=Fêmea
TTITLE8=Caça E Caçador
TTITLE9=Seu Melhor Amigo
TTITLE10=Eu Me Rendo
TTITLE11=Enrosca
TTITLE12=Felicidade
TTITLE13=Volta Ao Começo
TTITLE14=Pai
TTITLE15=Vida
TTITLE16=Romaria
EXTD=Fabio Junior - Brilhate
EXTT0=
EXTT1=
EXTT2=
EXTT3=
EXTT4=
EXTT5=
EXTT6=
EXTT7=
EXTT8=
EXTT9=
EXTT10=
EXTT11=
EXTT12=
EXTT13=
EXTT14=
EXTT15=
EXTT16=
PLAYORDER=
